HIERARCHY
ROOT hip
{
	OFFSET	0.00  0.00  0.00 
	CHANNELS 6 Xposition Yposition Zposition Xrotation Zrotation Yrotation
	JOINT waist
	{
		OFFSET	0.000000 2.191865 -0.079388
		CHANNELS 3 Xrotation Zrotation Yrotation
		JOINT abdomen
		{
			OFFSET	0.000000 2.770984 0.119082
			CHANNELS 3 Xrotation Zrotation Yrotation
			JOINT chest
			{
				OFFSET	0.000000 2.879627 -0.290598
				CHANNELS 3 Xrotation Zrotation Yrotation
				JOINT neck
				{
					OFFSET	0.000000 12.342733 -1.613748
					CHANNELS 3 Xrotation Zrotation Yrotation
					JOINT head
					{
						OFFSET	0.000000 4.485597 1.807195
						CHANNELS 3 Xrotation Zrotation Yrotation
						End Site
						{
							OFFSET 0.000000 7.191734 2.024398
						}
					}
				}
				JOINT lCollar
				{
					OFFSET	1.858774 10.237258 -1.915852
					CHANNELS 3 Zrotation Yrotation Xrotation
					JOINT lShldr
					{
						OFFSET	6.103279 0.000102 -0.038601
						CHANNELS 3 Zrotation Yrotation Xrotation
						JOINT lForeArm
						{
							OFFSET	10.574100 -0.365985 -0.655940
							CHANNELS 3 Zrotation Yrotation Xrotation
							JOINT lHand
							{
								OFFSET	13.213392 -0.641131 0.276866
								CHANNELS 3 Zrotation Yrotation Xrotation
								JOINT lThumb1
								{
									OFFSET	1.920964 -1.225712 1.722395
									CHANNELS 3 Zrotation Yrotation Xrotation
									JOINT lThumb2
									{
										OFFSET	0.248544 -0.143036 0.768265
										CHANNELS 3 Zrotation Yrotation Xrotation
										JOINT lThumb3
										{
											OFFSET	0.628484 -0.225174 0.508305
											CHANNELS 3 Zrotation Yrotation Xrotation
											End Site
											{
												OFFSET 0.831712 -0.207978 0.609962
											}
										}
									}
								}
								JOINT lIndex1
								{
									OFFSET	5.093442 -0.710319 1.829884
									CHANNELS 3 Zrotation Yrotation Xrotation
									JOINT lIndex2
									{
										OFFSET	0.889470 -0.051998 0.127073
										CHANNELS 3 Zrotation Yrotation Xrotation
										JOINT lIndex3
										{
											OFFSET	0.889570 -0.155981 0.127073
											CHANNELS 3 Zrotation Yrotation Xrotation
											End Site
											{
												OFFSET 0.797115 -0.294470 0.076252
											}
										}
									}
								}
								JOINT lMid1
								{
									OFFSET	5.154641 -0.519844 0.864111
									CHANNELS 3 Zrotation Yrotation Xrotation
									JOINT lMid2
									{
										OFFSET	0.928821 -0.051992 0.050831
										CHANNELS 3 Zrotation Yrotation Xrotation
										JOINT lMid3
										{
											OFFSET	0.984253 -0.311865 0.050831
											CHANNELS 3 Zrotation Yrotation Xrotation
											End Site
											{
												OFFSET 0.779717 -0.606438 -0.050831
											}
										}
									}
								}
								JOINT lRing1
								{
									OFFSET	4.924408 -0.754930 -0.235503
									CHANNELS 3 Zrotation Yrotation Xrotation
									JOINT lRing2
									{
										OFFSET	0.981624 -0.036924 -0.108278
										CHANNELS 3 Zrotation Yrotation Xrotation
										JOINT lRing3
										{
											OFFSET	0.805613 -0.205247 -0.041717
											CHANNELS 3 Zrotation Yrotation Xrotation
											End Site
											{
												OFFSET 0.667431 -0.470481 -0.035991
											}
										}
									}
								}
								JOINT lPinky1
								{
									OFFSET	4.535460 -0.816635 -1.006206
									CHANNELS 3 Zrotation Yrotation Xrotation
									JOINT lPinky2
									{
										OFFSET	0.690596 -0.064334 -0.168800
										CHANNELS 3 Zrotation Yrotation Xrotation
										JOINT lPinky3
										{
											OFFSET	0.598039 -0.111176 -0.071973
											CHANNELS 3 Zrotation Yrotation Xrotation
											End Site
											{
												OFFSET 0.422025 -0.290925 -0.035981
											}
										}
									}
								}
							}
						}
					}
				}
				JOINT rCollar
				{
					OFFSET	-1.858774 10.237258 -1.915852
					CHANNELS 3 Zrotation Yrotation Xrotation
					JOINT rShldr
					{
						OFFSET	-6.103279 0.000102 -0.038601
						CHANNELS 3 Zrotation Yrotation Xrotation
						JOINT rForeArm
						{
							OFFSET	-10.574100 -0.365985 -0.655940
							CHANNELS 3 Zrotation Yrotation Xrotation
							JOINT rHand
							{
								OFFSET	-13.213392 -0.641131 0.276866
								CHANNELS 3 Zrotation Yrotation Xrotation
								JOINT rIndex1
								{
									OFFSET	-5.093442 -0.710319 1.829884
									CHANNELS 3 Zrotation Yrotation Xrotation
									JOINT rIndex2
									{
										OFFSET	-0.889470 -0.051998 0.127073
										CHANNELS 3 Zrotation Yrotation Xrotation
										JOINT rIndex3
										{
											OFFSET	-0.889570 -0.155981 0.127073
											CHANNELS 3 Zrotation Yrotation Xrotation
											End Site
											{
												OFFSET -0.797115 -0.294470 0.076252
											}
										}
									}
								}
								JOINT rThumb1
								{
									OFFSET	-1.920964 -1.225712 1.722395
									CHANNELS 3 Zrotation Yrotation Xrotation
									JOINT rThumb2
									{
										OFFSET	-0.248544 -0.143036 0.768265
										CHANNELS 3 Zrotation Yrotation Xrotation
										JOINT rThumb3
										{
											OFFSET	-0.628484 -0.225174 0.508305
											CHANNELS 3 Zrotation Yrotation Xrotation
											End Site
											{
												OFFSET -0.831712 -0.207978 0.609962
											}
										}
									}
								}
								JOINT rMid1
								{
									OFFSET	-5.154641 -0.519844 0.864111
									CHANNELS 3 Zrotation Yrotation Xrotation
									JOINT rMid2
									{
										OFFSET	-0.928821 -0.051992 0.050831
										CHANNELS 3 Zrotation Yrotation Xrotation
										JOINT rMid3
										{
											OFFSET	-0.984253 -0.311865 0.050831
											CHANNELS 3 Zrotation Yrotation Xrotation
											End Site
											{
												OFFSET -0.779717 -0.606438 -0.050831
											}
										}
									}
								}
								JOINT rRing1
								{
									OFFSET	-4.924408 -0.754930 -0.235503
									CHANNELS 3 Zrotation Yrotation Xrotation
									JOINT rRing2
									{
										OFFSET	-0.981624 -0.036924 -0.108278
										CHANNELS 3 Zrotation Yrotation Xrotation
										JOINT rRing3
										{
											OFFSET	-0.805613 -0.205247 -0.041717
											CHANNELS 3 Zrotation Yrotation Xrotation
											End Site
											{
												OFFSET -0.667431 -0.470481 -0.035991
											}
										}
									}
								}
								JOINT rPinky1
								{
									OFFSET	-4.535460 -0.816635 -1.006206
									CHANNELS 3 Zrotation Yrotation Xrotation
									JOINT rPinky2
									{
										OFFSET	-0.690596 -0.064334 -0.168800
										CHANNELS 3 Zrotation Yrotation Xrotation
										JOINT rPinky3
										{
											OFFSET	-0.598039 -0.111176 -0.071973
											CHANNELS 3 Zrotation Yrotation Xrotation
											End Site
											{
												OFFSET -0.422025 -0.290925 -0.035981
											}
										}
									}
								}
							}
						}
					}
				}
			}
		}
	}
	JOINT lThigh
	{
		OFFSET	5.761895 -0.730553 0.000101
		CHANNELS 3 Xrotation Zrotation Yrotation
		JOINT lShin
		{
			OFFSET	-1.171020 -18.459274 1.627449
			CHANNELS 3 Xrotation Zrotation Yrotation
			JOINT lFoot
			{
				OFFSET	-0.883715 -16.872776 -3.357785
				CHANNELS 3 Xrotation Zrotation Yrotation
				JOINT lToe
				{
					OFFSET	1.287613 -2.778491 2.836049
					CHANNELS 3 Xrotation Yrotation Zrotation
					End Site
					{
						OFFSET 1.362641 -0.436631 3.828194
					}
				}
			}
		}
	}
	JOINT rThigh
	{
		OFFSET	-5.761895 -0.730553 0.000101
		CHANNELS 3 Xrotation Zrotation Yrotation
		JOINT rShin
		{
			OFFSET	1.171020 -18.459274 1.627449
			CHANNELS 3 Xrotation Zrotation Yrotation
			JOINT rFoot
			{
				OFFSET	0.883715 -16.872776 -3.357785
				CHANNELS 3 Xrotation Zrotation Yrotation
				JOINT rToe
				{
					OFFSET	-1.287613 -2.778491 2.836049
					CHANNELS 3 Xrotation Yrotation Zrotation
					End Site
					{
						OFFSET -1.362641 -0.436631 3.828194
					}
				}
			}
		}
	}
}
MOTION
Frames:     7
Frame Time: 0.033333
0.381362 36.041531 3.251055 2.987950 -0.332272 -15.867560 1.020382 -2.801242 6.961047 8.862274 -3.910427 6.347409 -3.708787 -3.080670 7.993570 -8.535518 -0.205654 -2.443940 -11.600610 1.513282 -4.938035 7.212234 7.049563 1.400246 -75.805016 27.535477 8.027040 -20.828743 -96.298347 53.289616 37.371216 -8.715216 -3.120819 9.081248 4.514383 11.046860 2.885537 19.203735 5.942466 1.128688 12.759651 2.712088 7.931860 -5.075997 -1.427770 -50.511692 2.390723 6.472649 -29.858311 0.215083 2.667516 -4.294856 -3.761611 0.014376 -20.112669 0.013540 0.984834 -33.147678 0.067116 -1.787579 -4.089545 0.787301 -0.375192 -17.194418 -0.029424 -0.876995 -15.579604 0.118921 -0.719931 1.689595 -0.049897 0.364544 -3.034299 0.015298 -0.369551 2.649647 -0.064424 0.171905 -11.767063 1.802014 2.975176 61.172447 49.515926 -10.357317 -4.290004 71.503693 22.738611 -52.118195 10.322870 -6.376253 74.003784 -6.185844 8.070564 88.871849 -7.230574 8.752855 86.959419 -3.954149 5.996076 3.308142 -4.923781 20.890574 -3.638772 -22.412975 7.118896 -1.032897 -11.750914 2.483912 76.617691 -5.768461 3.318222 89.852104 -2.379854 3.246778 88.035812 1.832312 -3.929946 75.221405 7.136962 -5.135114 89.845543 2.503896 -3.251681 89.879013 1.709844 -3.334550 75.877525 14.332999 -15.681332 89.194862 6.070367 -7.413573 89.707840 2.756678 -5.280298 -44.209442 8.963634 8.732953 34.638824 -2.542631 -4.339204 33.568153 -5.209177 11.935541 -23.680462 -0.205142 9.473015 13.941815 -5.881566 -1.751131 24.850744 1.225749 5.267220 32.721794 -19.501341 3.085767 -39.545536 4.922883 -13.031883 
0.381362 35.971714 3.251055 2.995291 -0.300941 -14.304350 1.508603 -2.609837 6.864961 12.546895 -3.765712 6.155725 -1.721550 -2.795542 7.182389 -8.539017 -0.185164 -2.210080 -15.713943 0.127868 -4.164273 7.491474 6.678048 0.485180 -74.773468 23.331760 6.701057 -34.096714 -93.809029 66.012207 36.000820 -8.136490 -2.983110 9.058968 4.540810 11.135633 3.042326 19.922520 6.199130 1.169835 13.111583 2.792215 6.698436 -5.103196 -1.254865 -49.240482 2.263499 6.344799 -30.247198 0.227108 2.700856 -6.212918 -3.755258 0.119484 -21.205040 0.024625 1.038167 -33.615768 0.060714 -1.812190 -6.533453 0.766525 -0.598785 -18.364761 -0.040367 -0.935134 -17.589380 0.120464 -0.812707 -1.646981 0.746597 -0.338872 -5.672147 0.020010 -0.682481 -0.681101 0.011766 -0.060877 -11.562447 0.991215 3.051636 63.633530 45.607735 -12.278887 -5.471827 74.421173 22.037125 -53.424232 9.039598 -6.346264 75.820915 -5.381786 8.063113 88.871849 -7.230574 8.752855 86.182533 -3.885375 5.979006 2.394826 -3.328510 19.518917 -3.374189 -21.301476 6.703739 -0.932359 -10.836793 2.279361 82.095222 -5.348054 3.338361 89.852104 -2.379854 3.246778 88.513329 1.856687 -3.939067 79.828117 6.708191 -5.216502 89.845543 2.503896 -3.251681 89.879013 1.709844 -3.334550 75.877525 14.332999 -15.681332 89.194862 6.070367 -7.413573 89.707840 2.756678 -5.280298 -41.610394 7.856410 8.537819 30.581142 -2.605260 -4.189308 35.160362 -4.111627 10.828973 -19.487335 0.360641 8.081115 11.156477 -5.199011 -0.685048 33.252216 1.039184 5.487226 33.986538 4.463869 -3.650375 -24.358990 1.721707 -8.622031 
0.381362 35.972027 3.251055 3.004425 -0.252053 -12.086423 2.415433 -2.343068 6.472443 15.826024 -3.489040 5.680033 0.313150 -2.191454 6.071811 -8.543535 -0.151697 -1.865633 -18.791973 -1.118174 -3.327669 7.856976 6.140578 -0.186405 -73.492149 17.882616 5.060502 -95.497101 -92.008804 127.154427 34.303368 -7.421646 -2.804049 9.022459 4.594573 11.245808 3.241031 20.806255 6.518571 1.220646 13.539534 2.890270 5.190749 -5.131410 -1.043864 -47.680122 2.111282 6.184262 -30.713850 0.241836 2.740755 -8.571246 -3.732906 0.248100 -22.550991 0.039678 1.103575 -34.191120 0.052570 -1.842369 -9.541779 0.718129 -0.872372 -19.817924 -0.055602 -1.006991 -20.057692 0.117907 -0.926612 -5.783397 1.665471 -1.208165 -8.930636 0.005941 -1.068816 -4.771874 0.086630 -0.352190 -11.279563 0.111968 3.156839 66.672409 40.144375 -14.794800 -7.222528 77.360184 20.837749 -52.761677 6.707901 -6.026858 74.491470 -3.910455 7.913376 86.112495 -6.843870 8.702324 82.551064 -3.567146 5.888726 0.977069 -1.690780 17.435955 -3.126314 -20.215858 6.308035 -0.843773 -9.998894 2.093662 85.346855 -4.430341 3.296274 89.852104 -2.379854 3.246778 86.369415 1.747861 -3.896224 82.483765 5.831928 -5.241769 89.845543 2.503896 -3.251681 89.879013 1.709844 -3.334550 75.877525 14.332999 -15.681332 89.194862 6.070367 -7.413573 89.707840 2.756678 -5.280298 -37.568485 5.796959 8.030514 29.962246 -2.700820 -4.024539 16.302286 -0.182367 9.595800 -8.626072 1.380289 4.352844 7.741380 -3.999793 -0.234627 40.923351 0.599974 5.651741 34.604443 8.949702 -8.703625 -13.532509 0.171088 -5.126048 
0.381362 35.900234 3.251055 3.013576 -0.193006 -9.360394 3.594706 -2.009475 5.813179 18.375542 -3.098790 4.967278 2.032782 -1.401318 4.710116 -8.547975 -0.119830 -1.446806 -20.485500 -1.847251 -2.564867 8.313327 5.329776 0.187523 -72.085434 11.147289 3.242290 25.718451 -85.707199 5.246670 32.458179 -6.638751 -2.629558 8.985765 4.636749 11.377090 3.465828 21.771622 6.875143 1.278101 14.014930 3.000667 3.555618 -5.155735 -0.814304 -45.984592 1.950932 6.005274 -31.229101 0.258474 2.784712 -11.125161 -3.703577 0.387267 -24.004202 0.057650 1.173776 -34.815224 0.043393 -1.875011 -12.802861 0.650328 -1.166251 -21.378347 -0.073985 -1.083696 -22.740623 0.109566 -1.050195 -10.298344 2.579562 -2.149051 -12.460473 -0.034052 -1.485702 -9.223404 0.144253 -0.674346 -10.928297 -0.806405 3.261755 70.040352 33.473633 -17.582245 -9.985056 80.244392 18.692747 -50.595280 3.675501 -5.580002 70.149376 -2.085963 7.619124 79.404495 -5.916633 8.499673 76.396507 -3.042863 5.690012 -0.813700 -0.190158 14.963817 -2.909894 -19.230097 5.951924 -0.772884 -9.303833 1.941473 85.627411 -3.146863 3.219978 89.852104 -2.379854 3.246778 81.691910 1.516431 -3.789189 82.519722 4.589796 -5.230403 89.845543 2.503896 -3.251681 89.879013 1.709844 -3.334550 75.877525 14.332999 -15.681332 89.194862 6.070367 -7.413573 89.707840 2.756678 -5.280298 -34.608814 3.884439 7.227556 31.219673 -2.832267 -3.981239 12.792345 1.514628 7.855131 -11.804100 0.976616 5.324207 2.174321 -2.307431 -0.108594 51.703732 0.190341 6.271400 33.575958 12.261290 -14.451366 -2.040773 -0.726654 -1.250209 
0.381362 35.725792 3.251055 3.021209 -0.131589 -6.243603 4.910164 -1.617185 4.926881 19.852093 -2.617602 4.033151 3.055421 -0.618891 3.157343 -8.551687 -0.084145 -0.966347 -20.456312 -2.062081 -1.885444 8.798736 4.450590 0.580401 -70.550339 3.360606 1.302742 12.568030 -82.111122 17.951925 33.298065 -5.743476 -2.549315 8.948781 4.695323 11.500196 3.707726 22.772346 7.253189 1.338984 14.509233 3.117844 1.861649 -5.183782 -0.575556 -44.192371 1.787307 5.810759 -31.744337 0.275507 2.828475 -13.776858 -3.676760 0.529478 -25.506157 0.078091 1.245843 -35.449078 0.033710 -1.908051 -16.180260 0.562928 -1.466567 -22.997253 -0.095258 -1.162730 -25.530849 0.094765 -1.178159 -15.031806 3.446931 -3.120159 -16.135363 -0.102883 -1.916282 -13.840803 0.177415 -1.012164 -10.547665 -1.734561 3.366470 73.503120 25.973635 -20.303648 -14.860354 83.012634 14.460184 -47.419346 0.308593 -5.064932 62.888241 -0.264353 7.118951 70.480400 -4.729966 8.065805 68.029922 -2.370106 5.332395 -2.794929 1.016949 12.441099 -2.729951 -18.381533 5.654274 -0.719270 -8.770104 1.824055 82.213539 -1.624377 3.116454 86.390862 -2.210826 3.214482 74.558708 1.182289 -3.590701 79.290466 3.050985 -5.174586 89.845543 2.503896 -3.251681 89.879013 1.709844 -3.334550 75.877525 14.332999 -15.681332 89.194862 6.070367 -7.413573 84.337906 2.384782 -5.143836 -34.452709 2.466264 6.292067 37.842857 -2.795457 -4.423218 14.141729 2.419412 6.469436 -17.815567 0.178272 7.216146 -2.649727 -1.487595 -1.423811 60.560722 -0.054810 6.639540 32.964981 14.667280 -18.893347 1.769288 -0.939029 -0.028483 
0.381362 35.446144 3.251055 3.026024 -0.064969 -2.892261 6.206010 -1.184496 3.843022 20.038404 -2.056077 2.935286 3.116174 0.108692 1.479057 -8.554043 -0.042888 -0.445999 -18.527372 -1.880834 -1.276693 9.303504 3.532320 0.984073 -68.900993 -5.067354 -0.717203 7.662107 -78.248917 22.496191 36.789600 -4.751826 -2.561324 8.902171 4.734526 11.621415 3.963328 23.789886 7.644305 1.403445 15.022414 3.236981 0.167482 -5.195037 -0.336687 -42.351551 1.625691 5.606124 -32.249844 0.292601 2.871259 -16.438049 -3.633506 0.671986 -27.008087 0.100413 1.317339 -36.063427 0.023977 -1.939979 -19.586252 0.457070 -1.764426 -24.606384 -0.118607 -1.240651 -28.330791 0.073668 -1.305691 -19.837133 4.227654 -4.084359 -19.819342 -0.199459 -2.342693 -18.507030 0.183191 -1.355140 -10.128046 -2.652961 3.441632 76.821671 18.003670 -22.616020 -25.071875 85.543900 4.889196 -43.685944 -3.034370 -4.533361 52.819752 1.190118 6.304543 59.741962 -3.411799 7.307890 57.779320 -1.627951 4.767063 -4.830730 1.831065 10.255866 -2.599596 -17.745337 5.434659 -0.690283 -8.474732 1.759859 74.351540 -0.025635 2.948848 76.505737 -1.742462 3.067324 65.047104 0.779986 -3.264349 72.148193 1.326105 -5.006890 89.845543 2.503896 -3.251681 89.879013 1.709844 -3.334550 75.877525 14.332999 -15.681332 89.194862 6.070367 -7.413573 75.135887 1.782664 -4.831400 -33.633324 0.739204 5.194636 43.854477 -2.616742 -4.874534 15.543846 3.567642 5.502120 -22.842009 -0.687473 8.736220 -7.182517 -1.255927 -3.354653 67.496216 -0.062891 6.856460 32.366508 17.144072 -22.598915 4.957200 -1.089669 0.972039 
0.381362 35.058643 3.251055 3.027288 0.009119 0.576429 7.355804 -0.719096 2.611142 19.108561 -1.440535 1.708555 2.341445 0.793157 -0.255785 -8.554664 0.002034 0.083413 -15.139608 -1.413708 -0.697947 9.798392 2.594517 1.387680 -67.117668 -13.755342 -2.774344 5.205971 -74.317055 24.425501 41.920753 -3.699830 -2.619920 7.697145 5.549404 11.070384 4.228645 24.805780 8.047637 1.467956 15.525973 3.357253 -1.467979 -5.199216 -0.105002 -40.500668 1.469939 5.395020 -32.716450 0.308713 2.910617 -19.030510 -3.584836 0.808601 -28.451471 0.123624 1.385473 -36.648510 0.014389 -1.970287 -22.913719 0.336481 -2.049452 -26.166721 -0.143329 -1.315552 -31.062380 0.047107 -1.428965 -24.576496 4.931674 -5.002700 -23.434692 -0.320706 -2.754379 -23.075792 0.161792 -1.690295 -9.698707 -3.522513 3.487444 79.779335 9.933808 -24.197189 -51.827179 87.485924 -21.239328 -39.853615 -5.988364 -3.999204 40.090618 1.795278 5.066468 47.582756 -2.120124 6.171985 45.970577 -0.913952 3.964949 -6.646653 2.155964 8.787960 -2.522973 -17.366573 5.303651 -0.688729 -8.455862 1.756135 61.314426 1.482670 2.612511 63.424274 -1.174279 2.753567 53.252968 0.364866 -2.774812 60.420609 -0.443770 -4.570946 79.443398 1.989302 -3.137610 81.883430 1.365764 -3.197584 75.877525 14.332999 -15.681332 85.767609 5.666200 -7.358483 62.255428 1.040087 -4.241149 -32.204727 -0.950356 3.326350 49.618786 -2.511655 -5.398029 17.226076 4.090431 4.993426 -26.629679 -2.220740 9.837984 -13.187648 -1.786942 -5.794808 74.530113 -0.131995 7.253793 31.039564 18.652493 -25.537474 5.473369 -1.236599 1.021445 
